<?xml version="1.0" standalone="no"?><!DOCTYPE svg PUBLIC "-//W3C//DTD SVG 1.1//EN" "http://www.w3.org/Graphics/SVG/1.1/DTD/svg11.dtd"><svg t="1766558665498" class="icon" viewBox="0 0 1117 1024" version="1.1" xmlns="http://www.w3.org/2000/svg" p-id="21096" xmlns:xlink="http://www.w3.org/1999/xlink" width="218.1640625" height="200"><path d="M1113.786182 837.818182c-15.080727 106.216727-80.802909 186.181818-159.604364 186.181818-89.972364 0-162.909091-104.215273-162.909091-232.727273s72.936727-232.727273 162.909091-232.727272a115.013818 115.013818 0 0 1 23.272727 3.351272V558.545455a418.909091 418.909091 0 0 0-837.818181 0v3.351272A115.013818 115.013818 0 0 1 162.909091 558.545455C252.881455 558.545455 325.818182 662.714182 325.818182 791.272727s-72.936727 232.727273-162.909091 232.727273C84.107636 1024 18.385455 944.034909 3.304727 837.818182H0v-325.818182A512 512 0 0 1 512 0h93.090909a512 512 0 0 1 512 512v325.818182h-3.304727z" fill="#FFFFFF" p-id="21097"></path></svg>